HIERARCHY
ROOT root
{
	OFFSET	0	13.1	24.9
	CHANNELS 6  Xposition Yposition Zposition Xrotation Yrotation Zrotation
	JOINT spine_1
	{
		OFFSET	0	9.99999	0
		CHANNELS 3  Xrotation Yrotation Zrotation
		JOINT spine_2
		{
			OFFSET	0	112	-10
			CHANNELS 3  Xrotation Yrotation Zrotation
			JOINT spine_3
			{
				OFFSET	0	206.5	19.3
				CHANNELS 3  Xrotation Yrotation Zrotation
				JOINT spine_4
				{
					OFFSET	0	110.4	14.6
					CHANNELS 3  Xrotation Yrotation Zrotation
					JOINT neck_1
					{
						OFFSET	0	71.8	-50.3
						CHANNELS 3  Xrotation Yrotation Zrotation
						JOINT neck_2
						{
							OFFSET	0	86.2	-25.8
							CHANNELS 3  Xrotation Yrotation Zrotation
							JOINT head_ee
							{
								OFFSET	0	179.8	-8.7
								CHANNELS 3  Xrotation Yrotation Zrotation
								End Site
								{
									OFFSET	1	0	0
								}
							}
						}
					}
					JOINT left_clavicle
					{
						OFFSET	-43.2	22.4	-70.8
						CHANNELS 3  Xrotation Yrotation Zrotation
						JOINT left_shoulder
						{
							OFFSET	-93.9	-5.79999	48.7
							CHANNELS 3  Xrotation Yrotation Zrotation
							JOINT left_elbow
							{
								OFFSET	-291.4	-30.8	15.2
								CHANNELS 3  Xrotation Yrotation Zrotation
								JOINT left_lowarm_twist
								{
									OFFSET	-110.7	-3.89999	13.6
									CHANNELS 3  Xrotation Yrotation Zrotation
									JOINT left_hand
									{
										OFFSET	-110.7	-3.89999	13.6
										CHANNELS 3  Xrotation Yrotation Zrotation
										JOINT left_ee
										{
											OFFSET	-80.8	-5.10001	12.1
											CHANNELS 3  Xrotation Yrotation Zrotation
											End Site
											{
												OFFSET	1	0	0
											}
										}
									}
								}
							}
						}
					}
					JOINT right_clavicle
					{
						OFFSET	43.2	22.4	-70.8
						CHANNELS 3  Xrotation Yrotation Zrotation
						JOINT right_shoulder
						{
							OFFSET	93.9	-5.79999	48.7
							CHANNELS 3  Xrotation Yrotation Zrotation
							JOINT right_elbow
							{
								OFFSET	291.4	-30.8	15.2
								CHANNELS 3  Xrotation Yrotation Zrotation
								JOINT right_lowarm_twist
								{
									OFFSET	110.7	-3.89999	13.6
									CHANNELS 3  Xrotation Yrotation Zrotation
									JOINT right_hand
									{
										OFFSET	110.7	-3.89999	13.6
										CHANNELS 3  Xrotation Yrotation Zrotation
										JOINT right_ee
										{
											OFFSET	80.8	-5.10001	12.1
											CHANNELS 3  Xrotation Yrotation Zrotation
											End Site
											{
												OFFSET	1	0	0
											}
										}
									}
								}
							}
						}
					}
				}
			}
		}
	}
	JOINT left_hip
	{
		OFFSET	-82.8	-127.5	0.300001
		CHANNELS 3  Xrotation Yrotation Zrotation
		JOINT left_knee
		{
			OFFSET	-28.2	-396.7	2.2
			CHANNELS 3  Xrotation Yrotation Zrotation
			JOINT left_ankle
			{
				OFFSET	-11.7	-411.3	35.4
				CHANNELS 3  Xrotation Yrotation Zrotation
				JOINT left_toes
				{
					OFFSET	0	-60	-88.6
					CHANNELS 3  Xrotation Yrotation Zrotation
					JOINT left_foot_ee
					{
						OFFSET	-22.5	-16.5	-42.2
						CHANNELS 3  Xrotation Yrotation Zrotation
						End Site
						{
							OFFSET	1	0	0
						}
					}
				}
			}
		}
	}
	JOINT right_hip
	{
		OFFSET	82.8	-127.5	0.300001
		CHANNELS 3  Xrotation Yrotation Zrotation
		JOINT right_knee
		{
			OFFSET	28.2	-396.7	2.2
			CHANNELS 3  Xrotation Yrotation Zrotation
			JOINT right_ankle
			{
				OFFSET	11.7	-411.3	35.4
				CHANNELS 3  Xrotation Yrotation Zrotation
				JOINT right_toes
				{
					OFFSET	0	-60	-88.6
					CHANNELS 3  Xrotation Yrotation Zrotation
					JOINT right_foot_ee
					{
						OFFSET	22.5	-16.5	-42.2
						CHANNELS 3  Xrotation Yrotation Zrotation
						End Site
						{
							OFFSET	1	0	0
						}
					}
				}
			}
		}
	}
}
MOTION
Frames: 5
Frame Time: 0.02
2435.32588753 765.849 -1534.75529056 1.00374577035 64.1565444676 -5.83587926247 0.901483 0.365963 2.02573 0.903736 0.236347 2.0449 0.912855 -0.166075 2.0518 0.907015 0.159984 2.05229 1.59254 15.5257 -1.89454 2.44925 28.9864 -0.933964 -0.0 0.0 -0.0 -0.223033 22.4517 2.29206 -16.5468 -17.7446 67.3202 0.912799 -24.3309 0.196782 3.5323 0.110994 -0.437454 0.421391 3.55142 4.27581 -0.0 0.0 -0.0 13.2506 27.4971 -26.0704 -8.25115 15.2017 -65.1441 1.30205 32.8203 -0.38348 19.3722 -0.271041 2.44801 0.0210201 -2.44115 -1.16471 0.0 0.0 0.0 10.0925 23.0839 -1.34366 -36.3775 -0.252537 5.48449 34.0892 -6.16523 -4.40222 -17.3827 0.0 0.0 -0.0 0.0 -0.0 13.8867 -5.58229 2.56397 -15.9894 -0.321835 -2.42469 20.3028 28.6969 3.4095 -21.4229 0.0 0.0 0.0 0.0 0.0 
2428.32565888 766.118 -1531.73371011 0.25891343142 64.9510000282 -5.04460332192 1.0313 0.34672 2.04134 1.03359 0.21615 2.05926 1.04195 -0.184045 2.06238 1.03605 0.143907 2.06556 1.37929 15.2768 -2.24564 2.22199 28.8708 -1.29051 -0.0 0.0 -0.0 -0.156232 21.5314 2.27978 -16.8953 -16.2137 67.7925 0.838916 -22.5664 0.167379 4.25377 0.130333 -0.527585 0.427337 3.45446 4.27567 -0.0 0.0 -0.0 12.6799 26.9606 -24.8242 -8.13158 16.9389 -65.3181 1.39576 34.6588 -0.435536 18.6565 -0.275843 2.35673 0.226941 -0.964194 -1.91766 0.0 0.0 0.0 11.0616 20.7411 -1.25199 -28.5245 0.0977462 4.33137 33.0888 -4.19905 -4.27355 -20.4119 0.0 0.0 -0.0 0.0 -0.0 13.6353 -4.70981 2.76355 -15.664 -0.322072 -2.37476 19.7538 29.2847 3.35272 -22.9246 0.0 0.0 0.0 0.0 0.0 
2421.68476545 763.987 -1527.2239013 0.525122114092 66.7819643146 -5.27130283025 0.913712 0.183723 2.11365 0.916197 0.0488841 2.12106 0.918581 -0.364694 2.09006 0.912486 -0.0301096 2.12141 0.493905 15.3557 -2.21098 1.26671 29.132 -1.03631 -0.0 0.0 -0.0 -0.159246 20.5775 2.16531 -15.9209 -15.4754 68.1708 0.738107 -20.0842 0.130709 4.58274 0.138774 -0.56876 0.488459 3.80241 4.8221 -0.0 0.0 -0.0 12.1801 26.716 -23.7091 -8.98644 19.4157 -65.4557 1.571 37.8882 -0.539253 17.8629 -0.279834 2.25544 0.500766 1.01544 -2.92518 0.0 0.0 0.0 11.6849 21.3926 -1.67457 -23.2544 0.242816 3.53587 30.4893 -2.67034 -3.98631 -22.806 0.0 0.0 -0.0 0.0 -0.0 13.5029 -4.95885 2.99846 -16.401 -0.321129 -2.48783 19.3208 28.5166 3.25557 -22.9902 0.0 0.0 0.0 0.0 0.0 
2413.13385242 766.037 -1524.74047285 -1.78049392318 68.8815869637 -2.74893080801 0.904308 0.360323 2.05127 0.90662 0.229094 2.07003 0.915587 -0.177987 2.07505 0.909611 0.15189 2.07712 -0.937462 15.641 -2.55291 -0.244263 30.1462 -1.02871 -0.0 0.0 -0.0 -0.129004 19.5458 2.09021 -14.6348 -15.4108 68.7077 0.641766 -17.6362 0.0995593 6.42618 0.181686 -0.800324 0.432896 4.58371 4.77143 -0.0 0.0 -0.0 12.0278 25.8623 -23.46 -9.78461 19.7055 -65.1665 1.72955 40.5854 -0.639573 15.826 -0.283654 1.99532 1.02932 6.52944 -4.18004 0.0 0.0 0.0 11.4291 18.5975 -0.561105 -13.5081 0.316482 2.04405 25.0316 2.03077 -3.34519 -27.493 0.0 0.0 -0.0 0.0 -0.0 13.8043 -1.9775 2.47454 -16.3558 -0.321228 -2.48089 20.9231 26.6957 3.41762 -24.7867 0.0 0.0 0.0 0.0 0.0 
2387.58162943 761.01 -1512.12149126 -3.00027232668 66.7482857591 -0.943138436703 1.24026 0.353724 2.01828 1.24249 0.224606 2.03669 1.25093 -0.163944 2.04246 1.24515 0.160613 2.04273 -2.51388 16.1435 -1.73847 -1.99411 30.6643 0.319338 -0.0 0.0 -0.0 -0.524129 18.0696 1.31807 -14.3098 -14.7004 71.1084 0.560925 -15.529 0.0764836 10.4029 0.248759 -1.30378 0.437214 5.0061 4.97082 -0.0 0.0 -0.0 12.5465 23.6166 -24.887 -11.6448 20.1952 -64.1255 1.66006 39.4289 -0.594897 13.2825 -0.27544 1.67058 1.60362 13.8809 -4.88573 0.0 0.0 0.0 9.39145 16.4237 0.865289 -11.2699 0.297521 1.70119 25.0168 7.26327 -3.33284 -30.2793 0.0 0.0 -0.0 0.0 -0.0 14.3685 0.817846 1.70607 -17.7312 -0.315745 -2.69185 23.2429 21.5147 3.54777 -26.3176 0.0 0.0 0.0 0.0 0.0 
